REM DIRINDEX 1\2\6,1\2\7,1\2\8,1\3\9,1\3\10,1\3\11,1\4\12,1\4\13,1\4\14,1\5\15,1\5\16,1\5\17,1\5\18
REM DIRNAME cjc019,folder01,folder02,folder03,folder04,folder05,folder06,folder07,folder08,folder09,folder10,folder11,folder12,folder13,folder14,folder15,folder16,folder17
TITLE ""
FILE "2Q_j_1527-1540.mp3" MP3
  TRACK 01 AUDIO
    TITLE "6:cjc019_1044"
    INDEX 01 00:00:00
  TRACK 02 AUDIO
    TITLE "0:"
    INDEX 01 00:01:32
  TRACK 03 AUDIO
    TITLE "7:cjc019_1045"
    INDEX 01 00:02:12
  TRACK 04 AUDIO
    TITLE "0:"
    INDEX 01 00:04:56
  TRACK 05 AUDIO
    TITLE "8:cjc019_1046"
    INDEX 01 00:05:36
  TRACK 06 AUDIO
    TITLE "0:"
    INDEX 01 00:10:55
  TRACK 07 AUDIO
    TITLE "6:cjc019_1047"
    INDEX 01 00:11:37
  TRACK 08 AUDIO
    TITLE "0:"
    INDEX 01 00:12:73
  TRACK 09 AUDIO
    TITLE "7:cjc019_1048"
    INDEX 01 00:13:57
  TRACK 10 AUDIO
    TITLE "0:"
    INDEX 01 00:15:38
  TRACK 11 AUDIO
    TITLE "8:cjc019_1049"
    INDEX 01 00:16:16
  TRACK 12 AUDIO
    TITLE "0:"
    INDEX 01 00:18:37
  TRACK 13 AUDIO
    TITLE "6:cjc019_1050"
    INDEX 01 00:19:15
  TRACK 14 AUDIO
    TITLE "0:"
    INDEX 01 00:21:00
  TRACK 15 AUDIO
    TITLE "7:cjc019_1051"
    INDEX 01 00:21:57
  TRACK 16 AUDIO
    TITLE "0:"
    INDEX 01 00:23:59
  TRACK 17 AUDIO
    TITLE "8:cjc019_1052"
    INDEX 01 00:24:39
  TRACK 18 AUDIO
    TITLE "0:"
    INDEX 01 00:28:70
  TRACK 19 AUDIO
    TITLE "6:cjc019_1053"
    INDEX 01 00:29:56
  TRACK 20 AUDIO
    TITLE "0:"
    INDEX 01 00:31:43
  TRACK 21 AUDIO
    TITLE "7:cjc019_1054"
    INDEX 01 00:32:25
  TRACK 22 AUDIO
    TITLE "0:"
    INDEX 01 00:34:47
  TRACK 23 AUDIO
    TITLE "8:cjc019_1055"
    INDEX 01 00:35:25
  TRACK 24 AUDIO
    TITLE "0:"
    INDEX 01 00:37:54
  TRACK 25 AUDIO
    TITLE "6:cjc019_1056"
    INDEX 01 00:38:30
  TRACK 26 AUDIO
    TITLE "0:"
    INDEX 01 00:40:24
  TRACK 27 AUDIO
    TITLE "7:cjc019_1057"
    INDEX 01 00:41:00
  TRACK 28 AUDIO
    TITLE "0:"
    INDEX 01 00:44:73
  TRACK 29 AUDIO
    TITLE "8:cjc019_1058"
    INDEX 01 00:45:49
  TRACK 30 AUDIO
    TITLE "0:"
    INDEX 01 00:50:09
  TRACK 31 AUDIO
    TITLE "6:cjc019_1059"
    INDEX 01 00:50:62
  TRACK 32 AUDIO
    TITLE "0:"
    INDEX 01 00:52:65
  TRACK 33 AUDIO
    TITLE "7:cjc019_1060"
    INDEX 01 00:53:49
  TRACK 34 AUDIO
    TITLE "0:"
    INDEX 01 00:55:55
  TRACK 35 AUDIO
    TITLE "8:cjc019_1061"
    INDEX 01 00:56:33
  TRACK 36 AUDIO
    TITLE "0:"
    INDEX 01 01:00:33
  TRACK 37 AUDIO
    TITLE "6:cjc019_1062"
    INDEX 01 01:01:13
  TRACK 38 AUDIO
    TITLE "0:"
    INDEX 01 01:03:06
  TRACK 39 AUDIO
    TITLE "7:cjc019_1063"
    INDEX 01 01:03:65
  TRACK 40 AUDIO
    TITLE "0:"
    INDEX 01 01:06:10
  TRACK 41 AUDIO
    TITLE "8:cjc019_1064"
    INDEX 01 01:06:61
  TRACK 42 AUDIO
    TITLE "0:"
    INDEX 01 01:11:35
  TRACK 43 AUDIO
    TITLE "6:cjc019_1065"
    INDEX 01 01:12:11
  TRACK 44 AUDIO
    TITLE "0:"
    INDEX 01 01:14:23
  TRACK 45 AUDIO
    TITLE "7:cjc019_1066"
    INDEX 01 01:15:09
  TRACK 46 AUDIO
    TITLE "0:"
    INDEX 01 01:19:09
  TRACK 47 AUDIO
    TITLE "8:cjc019_1067"
    INDEX 01 01:19:64
  TRACK 48 AUDIO
    TITLE "0:"
    INDEX 01 01:23:44
  TRACK 49 AUDIO
    TITLE "6:cjc019_1068"
    INDEX 01 01:24:28
  TRACK 50 AUDIO
    TITLE "0:"
    INDEX 01 01:26:13
  TRACK 51 AUDIO
    TITLE "7:cjc019_1069"
    INDEX 01 01:26:66
  TRACK 52 AUDIO
    TITLE "0:"
    INDEX 01 01:28:55
  TRACK 53 AUDIO
    TITLE "8:cjc019_1070"
    INDEX 01 01:29:35
  TRACK 54 AUDIO
    TITLE "0:"
    INDEX 01 01:34:01
  TRACK 55 AUDIO
    TITLE "6:cjc019_1071"
    INDEX 01 01:34:59
  TRACK 56 AUDIO
    TITLE "0:"
    INDEX 01 01:36:43
  TRACK 57 AUDIO
    TITLE "7:cjc019_1072"
    INDEX 01 01:37:24
  TRACK 58 AUDIO
    TITLE "0:"
    INDEX 01 01:39:27
  TRACK 59 AUDIO
    TITLE "8:cjc019_1073"
    INDEX 01 01:40:09
  TRACK 60 AUDIO
    TITLE "0:"
    INDEX 01 01:43:49
  TRACK 61 AUDIO
    TITLE "6:cjc019_1074"
    INDEX 01 01:44:30
  TRACK 62 AUDIO
    TITLE "0:"
    INDEX 01 01:46:23
  TRACK 63 AUDIO
    TITLE "7:cjc019_1075"
    INDEX 01 01:47:09
  TRACK 64 AUDIO
    TITLE "0:"
    INDEX 01 01:49:49
  TRACK 65 AUDIO
    TITLE "8:cjc019_1076"
    INDEX 01 01:50:27
  TRACK 66 AUDIO
    TITLE "0:"
    INDEX 01 01:55:22
  TRACK 67 AUDIO
    TITLE "6:cjc019_1077"
    INDEX 01 01:56:04
  TRACK 68 AUDIO
    TITLE "0:"
    INDEX 01 01:57:62
  TRACK 69 AUDIO
    TITLE "7:cjc019_1078"
    INDEX 01 01:58:40
  TRACK 70 AUDIO
    TITLE "0:"
    INDEX 01 02:00:55
  TRACK 71 AUDIO
    TITLE "8:cjc019_1079"
    INDEX 01 02:01:33
  TRACK 72 AUDIO
    TITLE "0:"
    INDEX 01 02:06:42
  TRACK 73 AUDIO
    TITLE "6:cjc019_1080"
    INDEX 01 02:07:22
  TRACK 74 AUDIO
    TITLE "0:"
    INDEX 01 02:09:26
  TRACK 75 AUDIO
    TITLE "7:cjc019_1081"
    INDEX 01 02:10:00
  TRACK 76 AUDIO
    TITLE "0:"
    INDEX 01 02:14:10
  TRACK 77 AUDIO
    TITLE "8:cjc019_1082"
    INDEX 01 02:14:63
  TRACK 78 AUDIO
    TITLE "0:"
    INDEX 01 02:19:37
  TRACK 79 AUDIO
    TITLE "6:cjc019_1083"
    INDEX 01 02:20:12
  TRACK 80 AUDIO
    TITLE "0:"
    INDEX 01 02:22:04
  TRACK 81 AUDIO
    TITLE "7:cjc019_1084"
    INDEX 01 02:22:58
  TRACK 82 AUDIO
    TITLE "0:"
    INDEX 01 02:25:02
  TRACK 83 AUDIO
    TITLE "8:cjc019_1085"
    INDEX 01 02:25:55
  TRACK 84 AUDIO
    TITLE "0:"
    INDEX 01 02:31:20
